<svg width="140" height="190" xmlns="http://www.w3.org/2000/svg" xmlns:undefined="http://inkscape.sourceforge.net/DTD/sodipodi-0.dtd" xmlns:xlink="http://www.w3.org/1999/xlink" version="1.0">
 <defs id="defs3">
  <linearGradient id="linearGradient8303">
   <stop offset="0" stop-color="#000086" id="stop8314"/>
   <stop offset="1" stop-color="#005aff" id="stop8316"/>
  </linearGradient>
  <linearGradient y2="0.07033" x2="0.19149" y1="0.95316" xlink:href="#linearGradient8303" x1="0.89359" id="linearGradient8318"/>
  <linearGradient y2="0.90625" x2="0.94677" y1="0.06253" xlink:href="#linearGradient8303" x1="0.09574" id="linearGradient9086"/>
  <pattern height="13.75001" patternTransform="matrix(1.035240888595581,0,0,1.0501406586556072,13.845080375671387,-10.022515154377004)" patternUnits="userSpaceOnUse" width="14.14216" id="pattern10642">
   <g fill="#fff" id="g10644">
    <rect transform="rotate(45 31.25 -2.9289)" x="13.724" y="18.7391" width="5" height="5" id="rect10646"/>
    <rect transform="rotate(45 31.25 -2.9289)" x="18.447" y="23.4621" width="5" height="5" id="rect10648"/>
    <rect transform="rotate(45 31.25 -2.9289)" x="18.724" y="13.7391" width="5" height="5" id="rect10650"/>
    <rect transform="rotate(45 31.25 -2.9289)" x="23.4467" y="18.4621" width="5" height="5" id="rect10652"/>
   </g>
  </pattern>
 </defs>
 <metadata>image/svg+xmlOpenclipartCard backs: grid blue2009-03-23T13:56:40playing card backs for the "Ornamental", "White", "Simple" and "Bordered" setshttp://openclipart.org/detail/23034/card-backs:-grid-blue-by-nicubununicubunubordered deckcardcardsclip artclipartdeckgamblinggameimagemediaornamental deckplayplaying cardspngpublic domainsimple decksvgwhite deck</metadata>
 <g>
  <title>Layer 1</title>
  <path stroke="null" fill="url(#linearGradient8318)" d="m19.78741,3.92l100.60401,0c8.66311,0 15.63197,7.01907 15.63197,15.73898l0,150.50062c0,8.71348 -6.96885,15.73147 -15.63197,15.73147l-100.60401,0c-8.65885,0 -15.62877,-7.018 -15.62877,-15.73147l0,-150.50062c0,-8.72313 6.96992,-15.7422 15.62877,-15.7422l0,0.00322z" id="path1385"/>
  <path stroke="null" fill="url(#pattern10642)" d="m21.26465,5.7296l97.7402,0c8.41651,0 15.18698,6.86897 15.18698,15.40241l0,147.28224c0,8.52714 -6.77048,15.39506 -15.18698,15.39506l-97.7402,0c-8.41237,0 -15.18388,-6.86792 -15.18388,-15.39506l0,-147.28224c0,-8.53659 6.77151,-15.40557 15.18388,-15.40557l0,0.00315z" id="path9846"/>
  <path stroke="null" fill="url(#linearGradient9086)" d="m17.17147,0.05727c-9.47628,0 -17.11465,7.57302 -17.11465,16.96823l0,155.73553c0,9.3941 7.63837,17.00043 17.11465,17.00043l105.76562,0c9.47516,0 17.12473,-7.60633 17.12473,-17.00043l0,-155.73553c0,-9.39965 -7.64957,-16.97267 -17.12473,-16.97267l-105.76562,0l0,0.00444zm0,1.38802l105.76562,0c8.72476,0 15.71353,6.93009 15.71353,15.58022l0,155.73553c0,8.65012 -6.98877,15.61242 -15.71353,15.61242l-105.76562,0c-8.72476,0 -15.71465,-6.96229 -15.71465,-15.61242l0,-155.73553c0,-8.65456 6.98989,-15.58466 15.71465,-15.58466l0,0.00444z" id="path2154"/>
 </g>
</svg>